<svg width="769" height="235" viewBox="0 0 769 235" fill="none" xmlns="http://www.w3.org/2000/svg">
<path d="M155.544 80.2674L155.51 80.2459L155.467 80.2214L155.249 80.0977L154.424 79.6285C153.714 79.2246 152.7 78.6482 151.486 77.9583C149.059 76.5788 145.832 74.7458 142.634 72.9314C139.96 71.4214 138.458 68.4626 138.748 65.4038L138.749 65.3987C139.049 62.3388 141.131 59.752 144.061 58.792C150.719 56.6111 157.984 57.1598 164.23 60.3603C170.468 63.5565 175.209 69.0861 177.383 75.7677L178.392 78.8685C179.386 81.9247 178.368 85.2614 175.825 87.2333C173.285 89.2035 169.82 89.3635 167.109 87.6479L167.102 87.6432C164.101 85.7199 161.196 83.8657 159.04 82.4922C157.962 81.8054 157.072 81.2389 156.451 80.8441L155.732 80.3872L155.544 80.2674Z" fill="white" stroke="white" stroke-width="3"/>
<path d="M100.44 46.8843L100.435 46.881L100.421 46.8719C88.6915 39.4126 74.7874 39.4918 63.8512 44.5856C52.9072 49.683 44.3452 60.1427 44.3452 73.7347V159.705C44.3452 173.298 52.9085 183.752 63.8524 188.847C74.7465 193.918 88.5848 194.015 100.285 186.654L171.617 146.492L171.652 146.472L171.685 146.451L171.779 146.392C192.25 133.396 192.253 105.667 171.788 92.6665L171.788 92.6664L171.785 92.6645L171.777 92.6599L100.44 46.8843Z" fill="white" stroke="white" stroke-width="3" stroke-miterlimit="2.2041"/>
<path fill-rule="evenodd" clip-rule="evenodd" d="M64.4845 45.9453C75.0019 41.0466 88.3591 40.9789 99.6157 48.1376L99.63 48.1467L170.975 93.927C170.978 93.9289 170.981 93.9308 170.984 93.9326C190.521 106.344 190.518 132.718 170.975 145.125L170.881 145.184L99.5165 185.365C88.2812 192.449 74.9721 192.368 64.4854 187.487C53.9614 182.588 45.8452 172.603 45.8452 159.705V73.7347C45.8452 60.8371 53.9604 50.8472 64.4845 45.9453ZM68.01 53.5671C59.8336 57.3755 54.2189 64.732 54.2189 73.7347V159.705C54.2189 168.707 59.8327 176.058 68.0092 179.864C76.193 183.674 86.5088 183.68 95.1358 178.203L95.2293 178.144L166.588 137.967C180.848 128.835 180.819 110.119 166.498 101.028L166.481 101.017L95.1331 55.2351L95.1261 55.2306C86.5016 49.7493 76.191 49.7566 68.01 53.5671Z" fill="#2F2F2F"/>
<path fill-rule="evenodd" clip-rule="evenodd" d="M87.3776 97C95.1871 97 101.498 103.354 101.498 111.169C101.498 125.021 90.3328 136.226 76.529 136.204H47.9927V97H87.3776ZM83.5685 121.497C79.0226 122.122 74.8352 118.933 74.2122 114.372C73.5893 109.81 76.7673 105.608 81.3132 104.983C85.8591 104.357 90.0466 107.547 90.6696 112.109C91.2925 116.67 88.1144 120.872 83.5685 121.497Z" fill="#2F2F2F"/>
<path fill-rule="evenodd" clip-rule="evenodd" d="M141.311 97C133.522 97 127.211 103.354 127.211 111.169C127.211 125.021 138.377 136.226 152.139 136.204H173.329C175.63 136.204 177.825 135.294 179.451 133.663C181.076 132.053 181.983 129.85 181.983 127.542V110.958C181.983 107.272 180.527 103.714 177.91 101.088C175.314 98.4613 171.767 97 168.074 97H141.311ZM143.116 120.808C147.662 121.433 151.85 118.245 152.473 113.683C153.099 109.093 149.921 104.89 145.371 104.294C140.826 103.669 136.638 106.858 136.015 111.42C135.392 115.982 138.57 120.183 143.116 120.808Z" fill="#2F2F2F"/>
<path fill-rule="evenodd" clip-rule="evenodd" d="M143.373 71.6245C141.225 70.4122 140.005 68.0267 140.241 65.5433C140.483 63.08 142.158 60.994 144.525 60.2184C150.805 58.1611 157.657 58.6794 163.546 61.6967C169.434 64.7139 173.907 69.9326 175.957 76.2347L176.966 79.3355C177.765 81.7919 176.947 84.4659 174.908 86.0473C172.87 87.6287 170.092 87.7587 167.911 86.3788C161.908 82.5303 156.284 78.9586 156.284 78.9586C156.284 78.9586 149.772 75.2544 143.373 71.6245Z" fill="#2F2F2F"/>
<path fill-rule="evenodd" clip-rule="evenodd" d="M92.3607 71.6366C94.5157 70.4041 95.7556 68.0251 95.4999 65.5351C95.2442 63.0451 93.5693 60.9593 91.2017 60.1838C84.9214 58.1264 78.11 58.6578 72.2281 61.6549C66.3463 64.652 61.8931 69.8771 59.8495 76.1591L58.8276 79.3002C58.0285 81.7566 58.8461 84.4306 60.885 86.012C62.9239 87.5934 65.7013 87.7234 67.882 86.3434C73.8854 82.4949 79.5101 78.9236 79.5101 78.9236C79.5101 78.9236 85.9822 75.2731 92.3607 71.6366Z" fill="#2F2F2F"/>
<path fill-rule="evenodd" clip-rule="evenodd" d="M119.389 134.581C119.389 133.74 119.054 132.941 118.475 132.349C117.882 131.758 117.084 131.426 116.247 131.426C114.199 131.426 111.52 131.426 109.472 131.426C108.635 131.426 107.837 131.758 107.244 132.349C106.652 132.941 106.33 133.74 106.33 134.581C106.33 135.411 106.665 136.221 107.244 136.813C107.837 137.404 108.635 137.736 109.472 137.736C111.52 137.736 114.199 137.736 116.247 137.736C117.084 137.736 117.882 137.404 118.475 136.813C119.054 136.221 119.389 135.422 119.389 134.581Z" fill="#2F2F2F" stroke="#2F2F2F" stroke-width="0.410115" stroke-miterlimit="1.5" stroke-linecap="round" stroke-linejoin="round"/>
<path fill-rule="evenodd" clip-rule="evenodd" d="M95.23 144.46C95.23 144.46 97.1982 146.756 100.296 148.12C102.184 148.952 104.452 149.443 106.94 149.042C110.088 148.531 112.356 147.107 113.945 145.242C115.653 143.227 116.562 140.64 116.692 137.912C116.792 135.797 115.163 133.992 113.055 133.892C110.947 133.791 109.148 135.426 109.048 137.552C108.998 138.544 108.749 139.527 108.119 140.259C107.59 140.88 106.78 141.281 105.731 141.452C104.852 141.592 104.053 141.382 103.383 141.081C101.944 140.449 101.005 139.406 101.005 139.406C99.6162 137.812 97.1982 137.642 95.5995 139.036C94.0009 140.429 93.8411 142.865 95.23 144.46Z" fill="#2F2F2F"/>
<path fill-rule="evenodd" clip-rule="evenodd" d="M124.731 139.406C124.731 139.406 123.802 140.449 122.353 141.081C121.684 141.372 120.885 141.592 120.005 141.452C118.956 141.281 118.147 140.88 117.617 140.258C116.988 139.517 116.738 138.544 116.688 137.552C116.588 135.436 114.79 133.791 112.681 133.892C110.573 133.992 108.945 135.797 109.045 137.912C109.175 140.64 110.074 143.227 111.792 145.242C113.371 147.107 115.649 148.531 118.796 149.042C121.284 149.443 123.552 148.952 125.441 148.12C128.548 146.756 130.507 144.46 130.507 144.46C131.896 142.865 131.736 140.429 130.137 139.036C128.538 137.642 126.12 137.812 124.731 139.406Z" fill="#2F2F2F"/>
<path d="M213.84 152.728V96.664C213.84 95.192 213.872 94.104 213.936 93.4C214.064 92.696 214.352 91.896 214.8 91C215.696 89.272 217.84 88.408 221.232 88.408C224.624 88.408 226.896 88.856 228.048 89.752C229.264 90.584 229.968 91.832 230.16 93.496C232.592 90.168 236.4 88.504 241.584 88.504C246.832 88.504 251.792 90.968 256.464 95.896C261.136 100.824 263.472 106.552 263.472 113.08C263.472 119.608 261.136 125.336 256.464 130.264C251.856 135.192 246.928 137.656 241.68 137.656C236.432 137.656 232.624 136.184 230.256 133.24V152.632C230.256 154.104 230.192 155.192 230.064 155.896C230 156.6 229.712 157.4 229.2 158.296C228.752 159.256 227.952 159.928 226.8 160.312C225.648 160.696 224.08 160.888 222.096 160.888C220.112 160.888 218.512 160.696 217.296 160.312C216.144 159.928 215.312 159.288 214.8 158.392C214.352 157.496 214.064 156.696 213.936 155.992C213.872 155.288 213.84 154.2 213.84 152.728ZM232.848 107.512C231.376 109.24 230.64 111.128 230.64 113.176C230.64 115.224 231.376 117.112 232.848 118.84C234.384 120.504 236.304 121.336 238.608 121.336C240.976 121.336 242.96 120.504 244.56 118.84C246.224 117.176 247.056 115.288 247.056 113.176C247.056 111.064 246.288 109.176 244.752 107.512C243.216 105.784 241.2 104.92 238.704 104.92C236.272 104.92 234.32 105.784 232.848 107.512ZM298.227 93.784C298.611 90.2 301.139 88.408 305.811 88.408C308.307 88.408 310.163 88.6 311.379 88.984C312.595 89.368 313.427 90.04 313.875 91C314.387 91.96 314.675 92.824 314.739 93.592C314.867 94.296 314.931 95.384 314.931 96.856V130.456C314.931 131.928 314.867 133.048 314.739 133.816C314.675 134.52 314.419 135.352 313.971 136.312C313.075 137.976 310.867 138.808 307.347 138.808C303.891 138.808 301.555 138.392 300.339 137.56C299.187 136.664 298.515 135.384 298.323 133.72C295.955 137.112 291.987 138.808 286.419 138.808C280.915 138.808 275.795 136.28 271.059 131.224C266.323 126.168 263.955 120.312 263.955 113.656C263.955 106.936 266.323 101.08 271.059 96.088C275.859 91.032 281.107 88.504 286.803 88.504C288.979 88.504 290.963 88.888 292.755 89.656C294.547 90.424 295.795 91.16 296.499 91.864C297.203 92.504 297.779 93.144 298.227 93.784ZM280.755 113.752C280.755 115.864 281.587 117.784 283.251 119.512C284.915 121.176 286.931 122.008 289.299 122.008C291.667 122.008 293.619 121.144 295.155 119.416C296.755 117.688 297.555 115.8 297.555 113.752C297.555 111.64 296.787 109.688 295.251 107.896C293.779 106.104 291.763 105.208 289.203 105.208C286.707 105.208 284.659 106.104 283.059 107.896C281.523 109.688 280.755 111.64 280.755 113.752ZM346.391 88.408C352.791 88.408 358.103 90.872 362.327 95.8C366.615 100.664 368.759 106.616 368.759 113.656V130.552C368.759 132.024 368.695 133.144 368.567 133.912C368.503 134.616 368.247 135.416 367.799 136.312C366.903 138.04 364.407 138.904 360.311 138.904C355.767 138.904 353.143 137.72 352.439 135.352C352.055 134.264 351.863 132.632 351.863 130.456V113.56C351.863 110.936 351.095 108.888 349.559 107.416C348.087 105.944 346.071 105.208 343.511 105.208C341.015 105.208 338.967 105.976 337.367 107.512C335.831 109.048 335.063 111.064 335.063 113.56V130.552C335.063 132.024 334.999 133.144 334.871 133.912C334.807 134.616 334.519 135.416 334.007 136.312C333.175 138.04 330.711 138.904 326.615 138.904C322.583 138.904 320.119 138.04 319.223 136.312C318.775 135.352 318.487 134.52 318.359 133.816C318.295 133.048 318.263 131.928 318.263 130.456V96.472C318.263 95.064 318.295 94.008 318.359 93.304C318.487 92.536 318.807 91.704 319.319 90.808C320.215 89.208 322.679 88.408 326.711 88.408C330.615 88.408 333.015 89.144 333.911 90.616C334.551 91.704 334.871 93.016 334.871 94.552C335.127 94.104 335.703 93.464 336.599 92.632C337.495 91.8 338.359 91.128 339.191 90.616C341.367 89.144 343.767 88.408 346.391 88.408ZM406.049 67.384C406.561 66.424 407.425 65.752 408.641 65.368C409.857 64.984 411.457 64.792 413.441 64.792C415.489 64.792 417.121 64.984 418.337 65.368C419.553 65.752 420.385 66.424 420.833 67.384C421.345 68.344 421.633 69.208 421.697 69.976C421.825 70.68 421.889 71.768 421.889 73.24V130.552C421.889 132.024 421.825 133.144 421.697 133.912C421.633 134.616 421.345 135.416 420.833 136.312C419.873 138.04 417.153 138.904 412.673 138.904C408.257 138.904 405.793 137.336 405.281 134.2C402.593 137.272 398.849 138.808 394.049 138.808C388.289 138.808 383.041 136.312 378.305 131.32C373.569 126.264 371.201 120.408 371.201 113.752C371.201 107.032 373.569 101.144 378.305 96.088C383.105 91.032 388.353 88.504 394.049 88.504C398.785 88.504 402.465 90.104 405.089 93.304V73.144C405.089 71.672 405.121 70.584 405.185 69.88C405.313 69.112 405.601 68.28 406.049 67.384ZM390.497 119.512C392.161 121.24 394.177 122.104 396.545 122.104C398.913 122.104 400.865 121.24 402.401 119.512C404.001 117.784 404.801 115.896 404.801 113.848C404.801 111.736 404.033 109.784 402.497 107.992C401.025 106.2 399.009 105.304 396.449 105.304C393.889 105.304 391.841 106.2 390.305 107.992C388.769 109.72 388.001 111.64 388.001 113.752C388.001 115.864 388.833 117.784 390.497 119.512ZM458.048 93.784C458.432 90.2 460.96 88.408 465.632 88.408C468.128 88.408 469.984 88.6 471.2 88.984C472.416 89.368 473.248 90.04 473.696 91C474.208 91.96 474.496 92.824 474.56 93.592C474.688 94.296 474.752 95.384 474.752 96.856V130.456C474.752 131.928 474.688 133.048 474.56 133.816C474.496 134.52 474.24 135.352 473.792 136.312C472.896 137.976 470.688 138.808 467.168 138.808C463.712 138.808 461.376 138.392 460.16 137.56C459.008 136.664 458.336 135.384 458.144 133.72C455.776 137.112 451.808 138.808 446.24 138.808C440.736 138.808 435.616 136.28 430.88 131.224C426.144 126.168 423.776 120.312 423.776 113.656C423.776 106.936 426.144 101.08 430.88 96.088C435.68 91.032 440.928 88.504 446.624 88.504C448.8 88.504 450.784 88.888 452.576 89.656C454.368 90.424 455.616 91.16 456.32 91.864C457.024 92.504 457.6 93.144 458.048 93.784ZM440.576 113.752C440.576 115.864 441.408 117.784 443.072 119.512C444.736 121.176 446.752 122.008 449.12 122.008C451.488 122.008 453.44 121.144 454.976 119.416C456.576 117.688 457.376 115.8 457.376 113.752C457.376 111.64 456.608 109.688 455.072 107.896C453.6 106.104 451.584 105.208 449.024 105.208C446.528 105.208 444.48 106.104 442.88 107.896C441.344 109.688 440.576 111.64 440.576 113.752ZM549.021 89.56C552.349 91.544 554.013 93.656 554.013 95.896C554.013 97.176 553.373 98.936 552.093 101.176L532.221 135.256C531.581 136.344 530.557 137.336 529.149 138.232C527.741 139.064 526.333 139.48 524.925 139.48C523.581 139.48 522.269 139.16 520.989 138.52C519.773 137.816 518.909 137.112 518.397 136.408L517.533 135.352L497.565 101.176C496.285 99.064 495.645 97.336 495.645 95.992C495.645 93.688 497.309 91.544 500.637 89.56C503.069 88.152 504.989 87.448 506.397 87.448C507.805 87.448 508.893 87.896 509.661 88.792C510.493 89.624 511.357 90.904 512.253 92.632L524.829 116.824L537.405 92.632C538.109 91.416 538.621 90.552 538.941 90.04C539.325 89.464 539.901 88.92 540.669 88.408C541.437 87.832 542.461 87.544 543.741 87.544C545.021 87.544 546.781 88.216 549.021 89.56ZM554.944 96.856C554.944 95.384 554.976 94.296 555.04 93.592C555.168 92.824 555.456 91.96 555.904 91C556.8 89.336 559.296 88.504 563.392 88.504C566.464 88.504 568.64 89.048 569.92 90.136C571.008 91.032 571.584 92.408 571.648 94.264C571.712 94.904 571.744 95.832 571.744 97.048V130.648C571.744 132.12 571.68 133.24 571.552 134.008C571.488 134.712 571.2 135.544 570.688 136.504C569.856 138.168 567.392 139 563.296 139C559.264 139 556.8 138.136 555.904 136.408C555.456 135.448 555.168 134.616 555.04 133.912C554.976 133.208 554.944 132.088 554.944 130.552V96.856ZM570.688 79.096C570.24 79.992 569.408 80.632 568.192 81.016C566.976 81.4 565.344 81.592 563.296 81.592C561.312 81.592 559.712 81.4 558.496 81.016C557.28 80.632 556.416 79.96 555.904 79C555.456 78.04 555.168 77.208 555.04 76.504C554.976 75.736 554.944 74.616 554.944 73.144C554.944 71.672 554.976 70.584 555.04 69.88C555.168 69.112 555.456 68.28 555.904 67.384C556.8 65.656 559.296 64.792 563.392 64.792C567.424 64.792 569.856 65.656 570.688 67.384C571.2 68.344 571.488 69.208 571.552 69.976C571.68 70.68 571.744 71.768 571.744 73.24C571.744 74.712 571.68 75.832 571.552 76.6C571.488 77.304 571.2 78.136 570.688 79.096ZM608.981 67.384C609.493 66.424 610.357 65.752 611.573 65.368C612.789 64.984 614.389 64.792 616.373 64.792C618.421 64.792 620.053 64.984 621.269 65.368C622.485 65.752 623.317 66.424 623.765 67.384C624.277 68.344 624.565 69.208 624.629 69.976C624.757 70.68 624.821 71.768 624.821 73.24V130.552C624.821 132.024 624.757 133.144 624.629 133.912C624.565 134.616 624.277 135.416 623.765 136.312C622.805 138.04 620.085 138.904 615.605 138.904C611.189 138.904 608.725 137.336 608.213 134.2C605.525 137.272 601.781 138.808 596.981 138.808C591.221 138.808 585.973 136.312 581.237 131.32C576.501 126.264 574.133 120.408 574.133 113.752C574.133 107.032 576.501 101.144 581.237 96.088C586.037 91.032 591.285 88.504 596.981 88.504C601.717 88.504 605.397 90.104 608.021 93.304V73.144C608.021 71.672 608.053 70.584 608.117 69.88C608.245 69.112 608.533 68.28 608.981 67.384ZM593.429 119.512C595.093 121.24 597.109 122.104 599.477 122.104C601.845 122.104 603.797 121.24 605.333 119.512C606.933 117.784 607.733 115.896 607.733 113.848C607.733 111.736 606.965 109.784 605.429 107.992C603.957 106.2 601.941 105.304 599.381 105.304C596.821 105.304 594.773 106.2 593.237 107.992C591.701 109.72 590.933 111.64 590.933 113.752C590.933 115.864 591.765 117.784 593.429 119.512ZM676.915 107.704C676.915 111.608 675.923 114.52 673.939 116.44C672.019 118.296 669.875 119.224 667.507 119.224H644.755C644.755 121.016 645.811 122.52 647.923 123.736C650.035 124.952 652.147 125.56 654.259 125.56C657.971 125.56 660.883 125.176 662.995 124.408L664.051 124.024C665.587 123.32 666.867 122.968 667.891 122.968C669.939 122.968 671.699 124.408 673.171 127.288C674.003 129.016 674.419 130.488 674.419 131.704C674.419 137.4 667.603 140.248 653.971 140.248C649.235 140.248 645.011 139.448 641.299 137.848C637.651 136.184 634.803 134.008 632.755 131.32C628.723 126.136 626.707 120.344 626.707 113.944C626.707 105.88 629.299 99.448 634.483 94.648C639.731 89.784 646.259 87.352 654.067 87.352C662.963 87.352 669.491 90.488 673.651 96.76C675.827 100.088 676.915 103.736 676.915 107.704ZM656.659 110.488C659.091 110.488 660.307 109.464 660.307 107.416C660.307 105.944 659.731 104.76 658.579 103.864C657.491 102.968 655.891 102.52 653.779 102.52C651.731 102.52 649.683 103.384 647.635 105.112C645.587 106.776 644.563 108.568 644.563 110.488H656.659ZM677.419 113.752C677.419 106.072 680.107 99.736 685.483 94.744C690.859 89.752 697.003 87.256 703.915 87.256C710.827 87.256 716.939 89.752 722.251 94.744C727.563 99.672 730.219 105.976 730.219 113.656C730.219 118.968 728.843 123.704 726.091 127.864C723.339 131.96 719.979 135 716.011 136.984C712.107 138.904 708.043 139.864 703.819 139.864C699.595 139.864 695.499 138.84 691.531 136.792C687.563 134.68 684.203 131.608 681.451 127.576C678.763 123.48 677.419 118.872 677.419 113.752ZM697.483 120.664C699.531 122.2 701.611 122.968 703.723 122.968C705.835 122.968 707.947 122.168 710.059 120.568C712.171 118.968 713.227 116.6 713.227 113.464C713.227 110.328 712.235 107.992 710.251 106.456C708.267 104.92 706.123 104.152 703.819 104.152C701.515 104.152 699.371 104.952 697.387 106.552C695.403 108.152 694.411 110.52 694.411 113.656C694.411 116.728 695.435 119.064 697.483 120.664Z" fill="white"/>
</svg>
